<svg width="48" height="48" viewBox="0 0 12.7 12.7" xmlns="http://www.w3.org/2000/svg"><path style="fill:#f8dcce;fill-opacity:1;stroke:none;stroke-width:.0525032px;stroke-linecap:butt;stroke-linejoin:miter;stroke-opacity:1" d="m-42.506-58.923-2.382-3.374 2.382-2.38 2.381 2.38z" transform="translate(48.856 65.284)"/><path style="fill:#fdf6ed;fill-opacity:1;stroke:none;stroke-width:.0525032px;stroke-linecap:butt;stroke-linejoin:miter;stroke-opacity:1" d="m-41.94-58.512 2.472-3.307 3 1.529-1.528 3z" transform="translate(48.856 65.284)"/><path style="fill:#f5cebc;fill-opacity:1;stroke:none;stroke-width:.0525032px;stroke-linecap:butt;stroke-linejoin:miter;stroke-opacity:1" d="m-42.156-57.846 3.909 1.33-.527 3.325-3.326-.526z" transform="translate(48.856 65.284)"/><path style="fill:#e67a7c;fill-opacity:1;stroke:none;stroke-width:.0525032px;stroke-linecap:butt;stroke-linejoin:miter;stroke-opacity:1" d="m-42.856-57.846-.057 4.129-3.326.526-.527-3.326z" transform="translate(48.856 65.284)"/><path style="fill:#f5cebc;fill-opacity:1;stroke:none;stroke-width:.0525032px;stroke-linecap:butt;stroke-linejoin:miter;stroke-opacity:1" d="m-43.072-58.512-3.945 1.222-1.529-3 3.001-1.529z" transform="translate(48.856 65.284)"/><path style="fill:#e67a7c;fill-opacity:1;stroke:none;stroke-width:.0525032px;stroke-linecap:butt;stroke-linejoin:miter;stroke-opacity:1" d="M-42.506-64.678v5.755l-2.382-3.374z" transform="translate(48.856 65.284)"/><path style="fill:#f97179;fill-opacity:1;stroke:none;stroke-width:.0525032px;stroke-linecap:butt;stroke-linejoin:miter;stroke-opacity:1" d="m-48.546-60.29 5.474 1.778-3.945 1.222z" transform="translate(48.856 65.284)"/><path style="fill:#e67a7c;fill-opacity:1;stroke:none;stroke-width:.0525032px;stroke-linecap:butt;stroke-linejoin:miter;stroke-opacity:1" d="m-42.156-57.846 3.382 4.655-3.326-.526z" transform="translate(48.856 65.284)"/><path style="fill:#faac9e;fill-opacity:1;stroke:none;stroke-width:.0525032px;stroke-linecap:butt;stroke-linejoin:miter;stroke-opacity:1" d="m-41.94-58.512 5.473-1.778-1.529 3zM-42.856-57.846l-.057 4.129-3.326.526z" transform="translate(48.856 65.284)"/></svg>
